<?xml version="1.0" encoding="iso-8859-1"?>
<!-- Generator: Adobe Illustrator 19.0.0, SVG Export Plug-In . SVG Version: 6.00 Build 0)  -->
<svg version="1.1" id="Capa_1" xmlns="http://www.w3.org/2000/svg" xmlns:xlink="http://www.w3.org/1999/xlink" x="0px" y="0px"
	 viewBox="0 0 490.947 490.947" style="enable-background:new 0 0 490.947 490.947;" xml:space="preserve">
<g>
	<g>
		<path d="M153.373,220.015c5.3,9.1,12.1,17.8,20.4,25.1c8.2,7.3,17.9,13.2,28.2,16.8c11.7,4.3,22.9,4.5,30.4,3
			c7.5-2,11.6-5.2,10.8-9.8c-1.4-8.6-15-13.8-30.2-21.3c-13.9-6.8-23.9-18.8-30.5-33.4c-6.7-14.6-10.1-31.4-12-48.5
			c-0.8-6.9-1.2-13.9-1.3-20.9c-0.1-3.5-0.1-7,0-10.4l0.2-5.1l0.4-5.8l0.8-10c0.1-3.4,1.2-6.4,1.7-9.7l0.9-4.8l1.5-4.5
			c1.1-3,1.7-6.2,3.3-8.8c5-11.4,13-20.9,23.4-27.6c10.3-6.9,23.2-10.8,36.2-12.1c11.7,0.7,23.6,3.3,33.8,7.8
			c10.3,4.5,19,10.7,25.5,18.6c6.6,7.9,11,17.6,14,28.2c0.8,5.4,2.4,9.3,2.8,16.9l1,10.2c0.2,2.5,0.4,5.8,0.5,8.8
			c0.7,24.8-2.1,50.6-11.3,71.5c-2.3,5.2-5,10-8.1,14.4c-3.1,4.3-6.6,8-10.5,11.3c-7.8,6.1-17.3,10.4-27.6,11.7
			c-0.8,0.1-1.7,0.4-2.7,0.9s-1.8,1.2-3.3,1.9c-2.7,1.3-5.2,2.9-6.3,4.2c-4.5,5,2,9.2,11.2,11.3c7.6,1.8,16.2,1.8,25,0.2
			c8.9-1.6,17.9-5.7,26-11.5c16.4-11.8,27.7-30.9,33.8-50.3c7.4-23.6,9.9-47.6,9.5-71.9c0-2.9-0.3-6.6-0.5-9.2l-0.6-8.5
			c0-5.2-1.7-12.6-2.9-19.1c-0.5-3.4-1.7-6.5-2.7-9.7c-1.1-3.2-2-6.3-3.3-9.5c-3.1-6.1-5.7-12.4-10-18
			c-7.8-11.5-18.5-21.5-30.7-28.2c-12.1-6.8-25.3-11.1-38.5-12.9c-6.6-1-13.3-1.4-19.8-1.3c-7,0.1-13.5,0.9-20.1,2.2
			c-13.1,2.6-26.2,7.5-37.8,15.2c-11.8,7-22.7,16.5-30.4,28.2c-12.6,18.3-17.9,39.5-19.5,59.4l-0.4,3.8l-0.2,1.9
			c-0.1,1,0.1-1.3,0.1-1.1v0.1v0.1v0.2l-0.1,0.5l-0.1,1.1c-0.2,2.6-0.4,5-0.5,7.5c-0.2,4.9-0.3,9.7-0.3,14.5
			c0.1,9.7,0.8,19.3,2.2,29C137.473,182.015,142.773,201.715,153.373,220.015z"/>
		<path d="M456.073,382.915c-0.2-5.7-0.7-11.7-1.5-17.8c-1.7-12.2-5.3-25.4-13.3-37.8s-21.2-22.2-34.7-26.7l-0.2-0.1
			c-0.4-0.1-0.9-0.3-1.3-0.4c-22.5-5.8-44.6-15.6-65-27.7c-4.9-2.8-14.2-4.6-17.8-4.1c-1.7,0.3-2.9,0.9-3.5,1.9s-0.6,2.3-0.2,3.8
			c0.9,3.1,3.9,7.2,8.1,11.4c17.5,18,41.6,34.3,70.9,44.5l-0.9-0.3c11.8,5.6,18.9,15,22.3,28.5c2.8,10.1,3,22.1,2.8,34.3
			c-0.2,6-0.6,12.2-1.2,18c-0.3,2.9-0.7,5.8-1.3,8.4c-0.1,0.4-0.1,0.7-0.2,1c-0.5,0.3-1,0.5-1.4,0.7c-2.3,1.1-4.5,2.3-6.8,3.3
			c-4.6,2.2-9.4,4.1-14.1,6.1c-9.6,3.8-19.4,7.2-29.4,10.1c-19.9,5.9-40.4,10.2-61.1,13c-5.1,0.9-10.4,1.2-15.6,1.8
			c-5.2,0.7-10.4,1-15.6,1.3s-10.4,0.8-15.7,0.8l-15.3,0.4c-10.9-0.2-22.1-0.2-32.1-0.9l-7.7-0.4l-7.8-0.7
			c-5.2-0.5-10.5-0.8-15.7-1.6c-6.6-1.3-13.2-2.4-19.7-4.1l-9.8-2.3l-9.7-2.7c-13.4-3.8-26.6-8.1-39.4-13.4
			c-6.4-2.6-12.7-5.4-18.8-8.3c-3-1.5-6.1-3-9-4.6c-0.5-0.3-0.9-0.5-1.4-0.8c-0.2-1.5-0.4-3-0.6-4.6c-0.5-4.5-0.7-9.4-0.9-14.3
			c-0.3-9.6,0.1-19.8,1.1-28.3c1.1-8.7,3.4-16.2,6.8-21.7c3.5-5.4,7.9-9.1,14.4-11.8l-1.5,0.4c18.3-5.2,35.5-12.5,51.7-21.1
			c23.5-12.5,39.3-29,32.4-35.4c-6.2-5.8-23.6-1.1-46.4,8.6c-15,6.4-30.5,11.5-46.1,14.9c-0.2,0-0.4,0.1-0.6,0.2l-0.6,0.2
			c-8.9,2.9-17.8,7.8-25,14.8c-7.2,6.9-12.3,15.5-15.7,24c-3.4,8.6-5.2,17.2-6.2,25.5c-0.5,4.2-0.8,8.2-1,12.2l-0.2,5.7l-0.1,2.8
			v3.3c0.1,6.7,0.3,13.4,1,20.3c0.3,3.5,0.7,6.9,1.4,10.7c0.7,3.8,1.4,7.5,3.3,12.5l0.1,0.2c1.2,3,3.2,5.6,6.2,7.4
			c2.3,1.4,4,2.4,5.9,3.4c1.9,1.1,3.7,2,5.6,3c3.7,2,7.5,3.6,11.2,5.4c7.5,3.3,15.1,6.4,22.8,9.2c15.3,5.5,30.9,10.1,46.7,13.5
			c7.9,1.9,15.8,3.1,23.8,4.7c8,1,15.9,2.5,24,3.2c8,0.8,16,1.6,24.2,1.9l12.2,0.6l11.7,0.1c-0.6-0.3-1.2-0.7-1.8-1
			c0.6,0.3,1.2,0.7,1.8,1c17.5,2,35,2.2,52.7,1.7c17.6-1,35.4-2.7,53-6.2c17.6-3.4,35-7.9,52.1-13.9c8.5-3,17-6.3,25.4-10.1
			c4.2-1.8,8.3-3.9,12.5-6c2.1-1.1,4.1-2.1,6.2-3.3c2.2-1.2,4-2.2,6.7-3.9l0.3-0.2c3.3-2.1,6-5.2,7.4-9.2c3.2-8.9,3.7-14.6,4.4-20.7
			c0.6-6,0.9-11.7,1.1-17.4c0.1-2.8,0.1-5.6,0.1-8.6L456.073,382.915z"/>
	</g>
</g>
<g>
</g>
<g>
</g>
<g>
</g>
<g>
</g>
<g>
</g>
<g>
</g>
<g>
</g>
<g>
</g>
<g>
</g>
<g>
</g>
<g>
</g>
<g>
</g>
<g>
</g>
<g>
</g>
<g>
</g>
</svg>
